HIERARCHY
ROOT Hips
{
	OFFSET 0.000000 0.000000 0.000000 
	CHANNELS 6 Xposition Yposition Zposition Zrotation Yrotation Xrotation
	JOINT LeftUpLeg
	{
		OFFSET 1.363060 -1.794630 0.839290 
		CHANNELS 3 Zrotation Yrotation Xrotation
		JOINT LeftLeg
		{
			OFFSET 2.448110 -6.726130 0.000000 
			CHANNELS 3 Zrotation Yrotation Xrotation
			JOINT LeftFoot
			{
				OFFSET 2.562200 -7.039590 0.000000 
				CHANNELS 3 Zrotation Yrotation Xrotation
				JOINT LeftToeBase
				{
					OFFSET 0.157640 -0.433110 2.322550 
					CHANNELS 3 Zrotation Yrotation Xrotation
					End Site
					{
						OFFSET 0.000000 0.000000 0.000000 
					}
				}
			}
		}
	}
	JOINT RightUpLeg
	{
		OFFSET -1.305520 -1.794630 0.839290 
		CHANNELS 3 Zrotation Yrotation Xrotation
		JOINT RightLeg
		{
			OFFSET -2.542530 -6.985550 0.000000 
			CHANNELS 3 Zrotation Yrotation Xrotation
			JOINT RightFoot
			{
				OFFSET -2.568260 -7.056230 0.000000 
				CHANNELS 3 Zrotation Yrotation Xrotation
				JOINT RightToeBase
				{
					OFFSET -0.164730 -0.452590 2.363150 
					CHANNELS 3 Zrotation Yrotation Xrotation
					End Site
					{
						OFFSET 0.000000 0.000000 0.000000 
					}
				}
			}
		}
	}
	JOINT Spine
	{
		OFFSET 0.028270 2.035590 -0.193380 
		CHANNELS 3 Zrotation Yrotation Xrotation
		JOINT Spine1
		{
			OFFSET 0.056720 2.048850 -0.042750 
			CHANNELS 3 Zrotation Yrotation Xrotation
			JOINT Neck1
			{
				OFFSET -0.054170 1.746240 0.172020 
				CHANNELS 3 Zrotation Yrotation Xrotation
				JOINT Head
				{
					OFFSET 0.104070 1.761360 -0.123970 
					CHANNELS 3 Zrotation Yrotation Xrotation
					End Site
					{
						OFFSET 0.000000 0.000000 0.000000 
					}
				}
			}
			JOINT LeftArm
			{
				OFFSET 3.362410 1.200890 -0.311210 
				CHANNELS 3 Zrotation Yrotation Xrotation
				JOINT LeftForeArm
				{
					OFFSET 4.983000 -0.000000 -0.000000 
					CHANNELS 3 Zrotation Yrotation Xrotation
					JOINT LeftHand
					{
						OFFSET 3.483560 -0.000000 -0.000000 
						CHANNELS 3 Zrotation Yrotation Xrotation
						JOINT LeftHandIndex1
						{
							OFFSET 0.715260 -0.000000 -0.000000 
							CHANNELS 3 Zrotation Yrotation Xrotation
							End Site
							{
								OFFSET 0.000000 0.000000 0.000000 
							}
						}
					}
				}
			}
			JOINT RightArm
			{
				OFFSET -3.136600 1.374050 -0.404650 
				CHANNELS 3 Zrotation Yrotation Xrotation
				JOINT RightForeArm
				{
					OFFSET -5.241900 -0.000000 -0.000000 
					CHANNELS 3 Zrotation Yrotation Xrotation
					JOINT RightHand
					{
						OFFSET -3.444170 -0.000000 -0.000000 
						CHANNELS 3 Zrotation Yrotation Xrotation
						JOINT RightHandIndex1
						{
							OFFSET -0.622530 -0.000000 -0.000000 
							CHANNELS 3 Zrotation Yrotation Xrotation
							End Site
							{
								OFFSET 0.000000 0.000000 0.000000 
							}
						}
					}
				}
			}
		}
	}
}
MOTION
Frames: 10
Frame Time: 0.041667
-6.424793 17.078702 2.662288 171.561512 -63.154855 -172.480068 -20.640089 14.778304 -2.290151 0.888877 7.603992 20.849328 0.641783 -0.046365 -12.210612 0.068300 -1.685500 -4.637400 14.759125 4.561559 -8.689577 -5.483408 -14.946341 46.184533 -1.791153 -16.725578 -42.657974 -1.067400 -6.568200 18.442300 0.536107 -3.160716 -2.159342 -2.513703 -1.662054 -4.682073 5.822394 -1.342221 -0.714349 1.177600 -0.696300 -4.730300 -65.858756 -15.418028 35.133098 54.216292 -51.208659 -33.429849 -0.301280 -0.956393 -29.928485 -7.125000 0.000000 0.000000 60.670320 -22.396634 -0.304979 -2.277940 14.381347 -1.325058 2.023841 0.437724 12.182191 7.125000 0.000000 0.000000 
-6.448694 17.088115 2.637117 171.564487 -62.078346 -172.364673 -20.867835 14.938024 -1.970466 0.851819 7.482778 20.507481 0.503464 0.845060 -12.392534 0.079100 -1.813800 -4.991300 14.198779 5.708501 -8.167686 -5.236545 -14.706273 45.281471 -1.695752 -16.814448 -42.414807 -1.046500 -6.505500 18.258400 0.608697 -3.154189 -2.164886 -2.358636 -1.647211 -4.705523 5.740396 -1.159941 -0.895332 1.060000 -0.628300 -4.865500 -65.904185 -14.449763 34.708483 53.857661 -51.169563 -33.211881 -0.283185 -0.992138 -30.696015 -7.125000 0.000000 0.000000 59.978230 -21.883806 1.969705 -2.956759 15.515389 -1.539738 1.990395 0.531830 10.081575 7.125000 0.000000 0.000000 
-6.471327 17.097210 2.609302 171.597979 -60.975909 -172.298202 -21.070191 15.091768 -1.618133 0.816480 7.359751 20.165033 0.365573 1.727690 -12.618940 0.098300 -2.022400 -5.567500 13.688984 6.854774 -7.698672 -5.018641 -14.489729 44.467482 -1.540274 -16.941510 -41.985299 -1.022700 -6.433400 18.047300 0.680336 -3.148498 -2.165469 -2.206711 -1.632012 -4.726532 5.664526 -0.963216 -1.076293 0.944900 -0.554900 -5.005900 -65.983524 -13.436462 34.230841 53.124116 -51.012185 -32.669698 -0.268073 -1.026406 -31.358219 -7.125000 0.000000 0.000000 59.379638 -21.320981 4.120106 -3.712371 16.701917 -1.787757 1.953724 0.620762 8.110502 7.125000 0.000000 0.000000 
-6.492479 17.106094 2.578314 171.641874 -59.856972 -172.260764 -21.235953 15.284730 -1.257359 0.783221 7.236181 19.825600 0.228727 2.574417 -12.819146 0.124300 -2.272500 -6.259500 13.231707 7.988560 -7.282872 -4.827632 -14.295322 43.733607 -1.298064 -17.127932 -41.286017 -0.992200 -6.339600 17.772900 0.751834 -3.152186 -2.162020 -2.049614 -1.620559 -4.747896 5.596266 -0.744124 -1.256352 0.835500 -0.471800 -5.153600 -66.090011 -12.380270 33.706712 52.021557 -50.729862 -31.810638 -0.257849 -1.058558 -31.863627 -7.125000 0.000000 0.000000 58.872342 -20.708944 6.125447 -4.539895 17.926598 -2.070193 1.914921 0.699897 6.299458 7.125000 0.000000 0.000000 
-6.512150 17.114555 2.543731 171.666876 -58.737482 -172.193358 -21.384263 15.532184 -0.912341 0.750964 7.111839 19.485149 0.096882 3.350296 -12.951328 0.155400 -2.539800 -6.999900 12.799320 9.083543 -6.937014 -4.662171 -14.120812 43.069383 -0.950756 -17.401790 -40.261860 -0.939900 -6.175100 17.293200 0.819669 -3.165282 -2.155855 -1.898620 -1.613579 -4.769736 5.529765 -0.507151 -1.434016 0.722900 -0.382300 -5.306900 -66.202697 -11.308694 33.169227 50.548279 -50.306844 -30.633791 -0.255442 -1.087633 -32.223821 -7.125000 0.000000 0.000000 58.488683 -20.058629 7.934538 -5.434110 19.175125 -2.387204 1.873695 0.762518 4.677527 7.125000 0.000000 0.000000 
-6.530129 17.122487 2.504811 171.702098 -57.618752 -172.126017 -21.500523 15.813235 -0.585671 0.720360 6.988117 19.148567 -0.032456 4.076545 -13.021304 0.192500 -2.825600 -7.793600 12.413376 10.132987 -6.665276 -4.517568 -13.965245 42.461545 -0.515221 -17.760512 -38.953094 -0.862300 -5.921400 16.556400 0.885770 -3.190214 -2.148812 -1.745159 -1.611919 -4.800147 5.464510 -0.248561 -1.609109 0.608100 -0.284200 -5.469100 -66.319301 -10.230799 32.619970 48.712640 -49.726269 -29.154027 -0.262685 -1.114049 -32.455067 -7.125000 0.000000 0.000000 58.229109 -19.378445 9.545735 -6.389503 20.436672 -2.739262 1.832170 0.811862 3.239556 7.125000 0.000000 0.000000 
-6.547686 17.128832 2.460604 171.698190 -56.509276 -172.038825 -21.609437 16.115413 -0.247303 0.691273 6.866042 18.817183 -0.158140 4.754744 -13.044527 0.236000 -3.126200 -8.630300 12.047447 11.092996 -6.445171 -4.392924 -13.823954 41.905251 -0.034552 -18.180212 -37.480853 -0.755000 -5.549500 15.482700 0.945823 -3.221556 -2.139085 -1.602095 -1.613154 -4.830781 5.396394 0.020896 -1.777800 0.485800 -0.183300 -5.639600 -66.431403 -9.167724 32.087904 46.537130 -48.971914 -27.398468 -0.280934 -1.138591 -32.591881 -7.125000 0.000000 0.000000 58.121036 -18.677863 10.900893 -7.389767 21.688168 -3.122154 1.790018 0.845754 2.002037 7.125000 0.000000 0.000000 
-6.563867 17.134861 2.410685 171.713834 -55.416441 -171.972038 -21.678112 16.359123 0.102355 0.664576 6.746489 18.496870 -0.288514 5.443762 -13.056268 0.286900 -3.444400 -9.518700 11.760765 11.961304 -6.286545 -4.281911 -13.700023 41.396446 0.436236 -18.636802 -36.035608 -0.626700 -5.065600 14.095900 1.002188 -3.249298 -2.129668 -1.470724 -1.613067 -4.875996 5.330920 0.292845 -1.938730 0.361800 -0.082800 -5.820200 -66.543130 -8.134320 31.589271 44.056261 -48.026048 -25.408249 -0.311279 -1.161409 -32.640307 -7.125000 0.000000 0.000000 58.179224 -17.984969 11.981436 -8.427872 22.922796 -3.535241 1.746398 0.864525 0.950010 7.125000 0.000000 0.000000 
-6.578144 17.141312 2.354950 171.778154 -54.362067 -171.925861 -21.701723 16.509964 0.465913 0.640574 6.630969 18.191413 -0.426790 6.161024 -13.060064 0.347200 -3.786100 -10.475700 11.570398 12.710917 -6.176584 -4.180765 -13.592542 40.935875 0.841738 -19.075174 -34.801878 -0.495200 -4.511900 12.521400 1.055675 -3.272633 -2.121984 -1.347984 -1.611434 -4.944622 5.272205 0.557571 -2.090422 0.241400 0.013800 -6.013900 -66.662902 -7.140717 31.135359 41.320035 -46.875411 -23.240374 -0.352999 -1.183760 -32.605958 -7.125000 0.000000 0.000000 58.409053 -17.327753 12.785125 -9.495697 24.135131 -3.977140 1.701672 0.873684 0.059696 7.125000 0.000000 0.000000 
-6.591893 17.148186 2.293609 171.891505 -53.325339 -171.940171 -21.682966 16.573052 0.871122 0.621329 6.524552 17.917117 -0.571197 6.908885 -13.094962 0.413700 -4.128700 -11.439100 11.482203 13.338932 -6.075548 -4.086645 -13.497255 40.520419 1.155803 -19.454446 -33.870001 -0.376200 -3.939300 10.906100 1.105529 -3.283275 -2.114321 -1.238160 -1.603976 -5.034352 5.223659 0.814549 -2.224472 0.130200 0.107700 -6.213900 -66.803366 -6.188017 30.706269 38.398270 -45.516258 -20.971885 -0.405320 -1.207039 -32.479179 -7.125000 0.000000 0.000000 58.793420 -16.720453 13.359281 -10.586136 25.324264 -4.446181 1.655715 0.879847 -0.712291 7.125000 0.000000 0.000000 
